<svg width="19" height="19" viewBox="0 0 19 19" fill="none" xmlns="http://www.w3.org/2000/svg">
<path d="M17.7952 9.14212L10.1235 1.02349L9.60926 0.479024C9.49209 0.355787 9.33364 0.286621 9.16849 0.286621C9.00334 0.286621 8.84489 0.355787 8.72773 0.479024L0.5418 9.14212C0.421743 9.26874 0.32686 9.41955 0.262752 9.58563C0.198644 9.75172 0.166609 9.92972 0.168539 10.1091C0.176481 10.8491 0.758212 11.4398 1.45708 11.4398H2.30089V18.2866H16.0361V11.4398H16.8978C17.2373 11.4398 17.5569 11.299 17.7972 11.0446C17.9155 10.9198 18.0092 10.7713 18.0729 10.6078C18.1366 10.4444 18.1691 10.2692 18.1684 10.0923C18.1684 9.73494 18.0354 9.39649 17.7952 9.14212ZM10.2803 16.773H8.05665V12.4846H10.2803V16.773ZM14.6066 9.92624V16.773H11.551V11.9801C11.551 11.5155 11.1956 11.1392 10.7568 11.1392H7.58015C7.14137 11.1392 6.78598 11.5155 6.78598 11.9801V16.773H3.7304V9.92624H1.82439L9.17048 2.15446L9.62911 2.64007L16.5146 9.92624H14.6066Z" fill="#C4C4C4"/>
</svg>
