<svg width="15" height="16" viewBox="0 0 15 16" fill="none" xmlns="http://www.w3.org/2000/svg">
<path d="M7.97168 8C10.1811 8 11.9717 6.20937 11.9717 4C11.9717 1.79063 10.1811 0 7.97168 0C5.7623 0 3.97168 1.79063 3.97168 4C3.97168 6.20937 5.7623 8 7.97168 8ZM10.7717 9H10.2498C9.55605 9.31875 8.78418 9.5 7.97168 9.5C7.15918 9.5 6.39043 9.31875 5.69355 9H5.17168C2.85293 9 0.97168 10.8813 0.97168 13.2V14.5C0.97168 15.3281 1.64355 16 2.47168 16H13.4717C14.2998 16 14.9717 15.3281 14.9717 14.5V13.2C14.9717 10.8813 13.0904 9 10.7717 9Z" fill="#C4C4C4"/>
</svg>
