<svg width="20" height="20" viewBox="0 0 20 20" fill="none" xmlns="http://www.w3.org/2000/svg">
<path d="M9.84375 1C5.75 1 2.28125 3.625 1 7.25H18.6875C17.4063 3.625 13.9375 1 9.84375 1Z" fill="#3E4347"/>
<path d="M9.96875 19.375C14.0625 19.375 17.5313 16.7812 18.8125 13.125H1.125C2.40625 16.7812 5.875 19.375 9.96875 19.375Z" fill="#FFE62E"/>
<path d="M1.125 6.875C0.78125 7.84375 0.59375 8.90625 0.59375 10C0.59375 11.0938 0.78125 12.1562 1.125 13.125H18.8125C19.1562 12.1562 19.3438 11.0938 19.3438 10C19.3438 8.90625 19.1562 7.84375 18.8125 6.875H1.125Z" fill="#ED4C5C"/>
</svg>
